<svg xmlns="http://www.w3.org/2000/svg" width="512" height="512" viewBox="0 0 512 512">
  <rect width="512" height="512" fill="#ffcf4d"/>
  <rect x="50" y="42" width="412" height="428" rx="22" fill="#ffcf4d"/>
  <g fill="#c89458" opacity="0.72">
    <rect x="78" y="92" width="356" height="14"/>
    <rect x="78" y="176" width="356" height="14"/>
    <rect x="78" y="260" width="356" height="14"/>
    <rect x="78" y="344" width="356" height="14"/>
    <rect x="100" y="62" width="12" height="380"/>
    <rect x="165" y="62" width="12" height="380"/>
    <rect x="230" y="62" width="12" height="380"/>
    <rect x="295" y="62" width="12" height="380"/>
    <rect x="360" y="62" width="12" height="380"/>
  </g>
  <g opacity="0.92">
    <rect x="92" y="72" width="28" height="34" rx="5" fill="#68c7e8"/>
    <rect x="154" y="70" width="24" height="42" rx="5" fill="#ff7b53"/>
    <rect x="218" y="74" width="38" height="28" rx="5" fill="#9be8cf"/>
    <rect x="284" y="70" width="22" height="40" rx="5" fill="#fff7c7"/>
    <rect x="346" y="76" width="44" height="24" rx="5" fill="#68c7e8"/>
    <rect x="96" y="202" width="46" height="34" rx="5" fill="#fff7c7"/>
    <rect x="170" y="198" width="28" height="46" rx="5" fill="#9be8cf"/>
    <rect x="252" y="202" width="34" height="30" rx="5" fill="#68c7e8"/>
    <rect x="330" y="196" width="50" height="40" rx="5" fill="#ff7b53"/>
  </g>
  <g stroke-width="8" stroke-linecap="round">
    <path d="M104 394 L116 338" stroke="#68c7e8"/>
    <path d="M138 394 L150 338" stroke="#ff7b53"/>
    <path d="M172 394 L184 338" stroke="#6bcf9d"/>
    <path d="M206 394 L218 338" stroke="#68c7e8"/>
    <path d="M240 394 L252 338" stroke="#ff7b53"/>
  </g>
</svg>
