<svg xmlns="http://www.w3.org/2000/svg" width="512" height="512" viewBox="0 0 512 512">
  <rect width="512" height="512" fill="#aadfff"/>
  <polygon points="36,22 42,35 56,36 45,45 49,58 36,50 23,58 27,45 16,36 30,35" fill="#ffffff" opacity="0.78"/>
  <polygon points="125,83 131,96 145,97 134,106 138,119 125,111 112,119 116,106 105,97 119,96" fill="#ffe78f" opacity="0.78"/>
  <polygon points="214,144 220,157 234,158 223,167 227,180 214,172 201,180 205,167 194,158 208,157" fill="#ffffff" opacity="0.78"/>
  <polygon points="303,205 309,218 323,219 312,228 316,241 303,233 290,241 294,228 283,219 297,218" fill="#ffe78f" opacity="0.78"/>
  <polygon points="392,266 398,279 412,280 401,289 405,302 392,294 379,302 383,289 372,280 386,279" fill="#ffffff" opacity="0.78"/>
  <polygon points="41,327 47,340 61,341 50,350 54,363 41,355 28,363 32,350 21,341 35,340" fill="#ffe78f" opacity="0.78"/>
  <polygon points="130,388 136,401 150,402 139,411 143,424 130,416 117,424 121,411 110,402 124,401" fill="#ffffff" opacity="0.78"/>
  <polygon points="219,449 225,462 239,463 228,472 232,485 219,477 206,485 210,472 199,463 213,462" fill="#ffe78f" opacity="0.78"/>
  <polygon points="308,80 314,93 328,94 317,103 321,116 308,108 295,116 299,103 288,94 302,93" fill="#ffffff" opacity="0.78"/>
  <polygon points="397,141 403,154 417,155 406,164 410,177 397,169 384,177 388,164 377,155 391,154" fill="#ffe78f" opacity="0.78"/>
  <polygon points="46,202 52,215 66,216 55,225 59,238 46,230 33,238 37,225 26,216 40,215" fill="#ffffff" opacity="0.78"/>
  <polygon points="135,263 141,276 155,277 144,286 148,299 135,291 122,299 126,286 115,277 129,276" fill="#ffe78f" opacity="0.78"/>
  <polygon points="224,324 230,337 244,338 233,347 237,360 224,352 211,360 215,347 204,338 218,337" fill="#ffffff" opacity="0.78"/>
  <polygon points="313,385 319,398 333,399 322,408 326,421 313,413 300,421 304,408 293,399 307,398" fill="#ffe78f" opacity="0.78"/>
  <polygon points="402,446 408,459 422,460 411,469 415,482 402,474 389,482 393,469 382,460 396,459" fill="#ffffff" opacity="0.78"/>
  <polygon points="51,77 57,90 71,91 60,100 64,113 51,105 38,113 42,100 31,91 45,90" fill="#ffe78f" opacity="0.78"/>
  <polygon points="140,138 146,151 160,152 149,161 153,174 140,166 127,174 131,161 120,152 134,151" fill="#ffffff" opacity="0.78"/>
  <polygon points="229,199 235,212 249,213 238,222 242,235 229,227 216,235 220,222 209,213 223,212" fill="#ffe78f" opacity="0.78"/>
  <polygon points="318,260 324,273 338,274 327,283 331,296 318,288 305,296 309,283 298,274 312,273" fill="#ffffff" opacity="0.78"/>
  <polygon points="407,321 413,334 427,335 416,344 420,357 407,349 394,357 398,344 387,335 401,334" fill="#ffe78f" opacity="0.78"/>
  <polygon points="56,382 62,395 76,396 65,405 69,418 56,410 43,418 47,405 36,396 50,395" fill="#ffffff" opacity="0.78"/>
  <polygon points="145,443 151,456 165,457 154,466 158,479 145,471 132,479 136,466 125,457 139,456" fill="#ffe78f" opacity="0.78"/>
  <polygon points="234,74 240,87 254,88 243,97 247,110 234,102 221,110 225,97 214,88 228,87" fill="#ffffff" opacity="0.78"/>
  <polygon points="323,135 329,148 343,149 332,158 336,171 323,163 310,171 314,158 303,149 317,148" fill="#ffe78f" opacity="0.78"/>
  <polygon points="412,196 418,209 432,210 421,219 425,232 412,224 399,232 403,219 392,210 406,209" fill="#ffffff" opacity="0.78"/>
  <polygon points="61,257 67,270 81,271 70,280 74,293 61,285 48,293 52,280 41,271 55,270" fill="#ffe78f" opacity="0.78"/>
</svg>
