<svg xmlns="http://www.w3.org/2000/svg" width="512" height="512" viewBox="0 0 512 512">
  <rect width="512" height="512" fill="#d9574f"/>
  <rect x="52" y="44" width="408" height="424" rx="24" fill="#d9574f"/>
  <rect x="78" y="94" width="356" height="16" fill="#8d382f" opacity="0.75"/>
  <rect x="78" y="182" width="356" height="16" fill="#8d382f" opacity="0.75"/>
  <rect x="78" y="270" width="356" height="16" fill="#8d382f" opacity="0.75"/>
  <rect x="78" y="358" width="356" height="16" fill="#8d382f" opacity="0.75"/>
  <rect x="84" y="62" width="22" height="58" rx="5" fill="#ffd665"/>
  <rect x="127" y="62" width="27" height="76" rx="5" fill="#68c7e8"/>
  <rect x="170" y="62" width="32" height="58" rx="5" fill="#9be8cf"/>
  <rect x="213" y="62" width="22" height="76" rx="5" fill="#fff7c7"/>
  <rect x="256" y="62" width="27" height="58" rx="5" fill="#ffd665"/>
  <rect x="299" y="62" width="32" height="76" rx="5" fill="#68c7e8"/>
  <rect x="342" y="62" width="22" height="58" rx="5" fill="#9be8cf"/>
  <rect x="385" y="62" width="27" height="76" rx="5" fill="#fff7c7"/>
  <rect x="84" y="150" width="32" height="58" rx="5" fill="#ffd665"/>
  <rect x="127" y="150" width="22" height="76" rx="5" fill="#68c7e8"/>
  <rect x="170" y="150" width="27" height="58" rx="5" fill="#9be8cf"/>
  <rect x="213" y="150" width="32" height="76" rx="5" fill="#fff7c7"/>
  <rect x="256" y="150" width="22" height="58" rx="5" fill="#ffd665"/>
  <rect x="299" y="150" width="27" height="76" rx="5" fill="#68c7e8"/>
  <rect x="342" y="150" width="32" height="58" rx="5" fill="#9be8cf"/>
  <rect x="385" y="150" width="22" height="76" rx="5" fill="#fff7c7"/>
  <rect x="84" y="238" width="27" height="58" rx="5" fill="#ffd665"/>
  <rect x="127" y="238" width="32" height="76" rx="5" fill="#68c7e8"/>
  <rect x="170" y="238" width="22" height="58" rx="5" fill="#9be8cf"/>
  <rect x="213" y="238" width="27" height="76" rx="5" fill="#fff7c7"/>
  <rect x="256" y="238" width="32" height="58" rx="5" fill="#ffd665"/>
  <rect x="299" y="238" width="22" height="76" rx="5" fill="#68c7e8"/>
  <rect x="342" y="238" width="27" height="58" rx="5" fill="#9be8cf"/>
  <rect x="385" y="238" width="32" height="76" rx="5" fill="#fff7c7"/>
  <rect x="84" y="326" width="22" height="58" rx="5" fill="#ffd665"/>
  <rect x="127" y="326" width="27" height="76" rx="5" fill="#68c7e8"/>
  <rect x="170" y="326" width="32" height="58" rx="5" fill="#9be8cf"/>
  <rect x="213" y="326" width="22" height="76" rx="5" fill="#fff7c7"/>
  <rect x="256" y="326" width="27" height="58" rx="5" fill="#ffd665"/>
  <rect x="299" y="326" width="32" height="76" rx="5" fill="#68c7e8"/>
  <rect x="342" y="326" width="22" height="58" rx="5" fill="#9be8cf"/>
  <rect x="385" y="326" width="27" height="76" rx="5" fill="#fff7c7"/>
</svg>
