<svg xmlns="http://www.w3.org/2000/svg" width="256" height="256" viewBox="0 0 256 256">
  <rect width="256" height="256" fill="#9ad977"/>
  <g stroke="#75bd59" stroke-width="3" opacity="0.7">
    <path d="M-18 34C30 18 68 18 116 34S210 54 276 28"/>
    <path d="M-18 94C28 78 76 78 124 94S216 116 276 88"/>
    <path d="M-18 154C36 136 84 136 132 154S218 174 276 148"/>
    <path d="M-18 214C30 198 78 198 126 214S214 236 276 208"/>
  </g>
  <g stroke="#c8efa9" stroke-width="2" opacity="0.62">
    <path d="M28 0L12 256M84 0L72 256M146 0L132 256M210 0L192 256"/>
  </g>
  <g fill="#d7f6bd" opacity="0.55">
    <ellipse cx="44" cy="60" rx="10" ry="4"/>
    <ellipse cx="174" cy="96" rx="12" ry="4"/>
    <ellipse cx="96" cy="170" rx="13" ry="4"/>
    <ellipse cx="220" cy="218" rx="10" ry="4"/>
  </g>
</svg>
