<svg xmlns="http://www.w3.org/2000/svg" width="512" height="512" viewBox="0 0 512 512">
  <rect width="512" height="512" fill="#ffbf5b"/>
  <circle cx="256" cy="256" r="224" fill="#79d6cf"/>
  <circle cx="256" cy="256" r="168" fill="#f36f72" opacity="0.9"/>
  <circle cx="256" cy="256" r="92" fill="#ffbf5b" opacity="0.95"/>
  <circle cx="72" cy="74" r="16" fill="#79d6cf" opacity="0.72"/>
  <circle cx="155" cy="133" r="21" fill="#ffbf5b" opacity="0.72"/>
  <circle cx="238" cy="192" r="26" fill="#79d6cf" opacity="0.72"/>
  <circle cx="321" cy="251" r="31" fill="#ffbf5b" opacity="0.72"/>
  <circle cx="404" cy="310" r="16" fill="#79d6cf" opacity="0.72"/>
  <circle cx="119" cy="369" r="21" fill="#ffbf5b" opacity="0.72"/>
  <circle cx="202" cy="428" r="26" fill="#79d6cf" opacity="0.72"/>
  <circle cx="285" cy="127" r="31" fill="#ffbf5b" opacity="0.72"/>
  <circle cx="368" cy="186" r="16" fill="#79d6cf" opacity="0.72"/>
  <circle cx="83" cy="245" r="21" fill="#ffbf5b" opacity="0.72"/>
  <circle cx="166" cy="304" r="26" fill="#79d6cf" opacity="0.72"/>
  <circle cx="249" cy="363" r="31" fill="#ffbf5b" opacity="0.72"/>
  <circle cx="332" cy="422" r="16" fill="#79d6cf" opacity="0.72"/>
  <circle cx="415" cy="121" r="21" fill="#ffbf5b" opacity="0.72"/>
  <circle cx="130" cy="180" r="26" fill="#79d6cf" opacity="0.72"/>
  <circle cx="213" cy="239" r="31" fill="#ffbf5b" opacity="0.72"/>
  <circle cx="296" cy="298" r="16" fill="#79d6cf" opacity="0.72"/>
  <circle cx="379" cy="357" r="21" fill="#ffbf5b" opacity="0.72"/>
</svg>
