<svg xmlns="http://www.w3.org/2000/svg" width="256" height="256" viewBox="0 0 256 256">
  <rect width="256" height="256" fill="#9ed979"/>
  <g stroke="#7fc560" stroke-width="3" opacity="0.65">
    <path d="M-24 44C26 20 70 20 120 44S214 68 280 38"/>
    <path d="M-24 106C34 82 82 82 132 106S216 132 280 100"/>
    <path d="M-24 168C22 146 72 146 122 168S218 194 280 162"/>
    <path d="M-24 228C32 206 82 206 132 228S214 252 280 222"/>
  </g>
  <g fill="#beeaa3" opacity="0.45">
    <rect x="22" y="24" width="44" height="8" rx="4"/>
    <rect x="136" y="58" width="58" height="8" rx="4"/>
    <rect x="70" y="126" width="78" height="8" rx="4"/>
    <rect x="170" y="198" width="50" height="8" rx="4"/>
  </g>
  <g stroke="#f8fff0" stroke-width="6" opacity="0.72" fill="none">
    <path d="M42 42H214V214H42z"/>
    <circle cx="128" cy="128" r="34"/>
    <path d="M128 42V214"/>
  </g>
</svg>
