<svg xmlns="http://www.w3.org/2000/svg" width="256" height="256" viewBox="0 0 256 256">
  <rect width="256" height="256" fill="#dff2f5"/>
  <g opacity="0.45">
    <rect x="0" y="0" width="64" height="64" fill="#c9e4ea"/>
    <rect x="128" y="0" width="64" height="64" fill="#c9e4ea"/>
    <rect x="64" y="64" width="64" height="64" fill="#c9e4ea"/>
    <rect x="192" y="64" width="64" height="64" fill="#c9e4ea"/>
    <rect x="0" y="128" width="64" height="64" fill="#c9e4ea"/>
    <rect x="128" y="128" width="64" height="64" fill="#c9e4ea"/>
    <rect x="64" y="192" width="64" height="64" fill="#c9e4ea"/>
    <rect x="192" y="192" width="64" height="64" fill="#c9e4ea"/>
  </g>
  <g stroke="#9fc8d0" stroke-width="3" opacity="0.85">
    <path d="M64 0V256M128 0V256M192 0V256M0 64H256M0 128H256M0 192H256"/>
  </g>
  <path d="M26 32H230M26 160H230" stroke="#fff7c7" stroke-width="9" stroke-linecap="round" opacity="0.62"/>
</svg>
