<svg xmlns="http://www.w3.org/2000/svg" width="256" height="256" viewBox="0 0 256 256">
  <rect width="256" height="256" fill="#e8f4fa"/>
  <g fill="#ffffff" opacity="0.34">
    <circle cx="24" cy="28" r="2"/>
    <circle cx="76" cy="96" r="1.5"/>
    <circle cx="138" cy="42" r="2.4"/>
    <circle cx="214" cy="86" r="1.8"/>
    <circle cx="48" cy="172" r="2.2"/>
    <circle cx="116" cy="214" r="1.4"/>
    <circle cx="194" cy="186" r="2.1"/>
    <circle cx="232" cy="236" r="1.5"/>
  </g>
  <g fill="#b9d9e8" opacity="0.24">
    <circle cx="42" cy="62" r="2.4"/>
    <circle cx="108" cy="132" r="1.8"/>
    <circle cx="166" cy="104" r="2.2"/>
    <circle cx="226" cy="146" r="1.6"/>
    <circle cx="78" cy="226" r="2"/>
    <circle cx="150" cy="238" r="1.5"/>
  </g>
  <g stroke="#b9d9e8" stroke-linecap="round" opacity="0.18">
    <path d="M18 48 l32 -3" stroke-width="1.6"/>
    <path d="M82 34 l42 4" stroke-width="1.3"/>
    <path d="M154 78 l56 -5" stroke-width="1.6"/>
    <path d="M36 126 l48 3" stroke-width="1.2"/>
    <path d="M126 166 l38 -4" stroke-width="1.5"/>
    <path d="M176 218 l48 2" stroke-width="1.2"/>
  </g>
</svg>
