<svg xmlns="http://www.w3.org/2000/svg" width="256" height="256" viewBox="0 0 256 256">
  <rect width="256" height="256" fill="#e8f7e5"/>
  <g fill="#ffffff" opacity="0.32">
    <circle cx="20" cy="36" r="1.8"/>
    <circle cx="72" cy="84" r="2.2"/>
    <circle cx="146" cy="58" r="1.5"/>
    <circle cx="218" cy="104" r="2"/>
    <circle cx="52" cy="164" r="1.7"/>
    <circle cx="108" cy="226" r="2.1"/>
    <circle cx="188" cy="190" r="1.6"/>
    <circle cx="232" cy="234" r="2.2"/>
  </g>
  <g fill="#b9d8af" opacity="0.24">
    <circle cx="44" cy="70" r="2.1"/>
    <circle cx="116" cy="118" r="1.5"/>
    <circle cx="174" cy="100" r="2.3"/>
    <circle cx="224" cy="154" r="1.7"/>
    <circle cx="82" cy="216" r="1.8"/>
    <circle cx="156" cy="238" r="1.4"/>
  </g>
  <g stroke="#b9d8af" stroke-linecap="round" opacity="0.18">
    <path d="M16 48 l34 -2" stroke-width="1.5"/>
    <path d="M88 38 l38 3" stroke-width="1.2"/>
    <path d="M154 82 l50 -4" stroke-width="1.5"/>
    <path d="M34 130 l46 2" stroke-width="1.2"/>
    <path d="M124 166 l40 -3" stroke-width="1.5"/>
    <path d="M174 220 l52 2" stroke-width="1.2"/>
  </g>
</svg>
